<svg xmlns="http://www.w3.org/2000/svg" viewBox="0 0 384 512" fill="currentColor">
  <path d="M318.7 268.7c-.2-37.5 16.7-65.8 51-86.5-19.2-27.9-48.1-43.6-85.6-47.1-35.9-3.3-75.2 21.2-89.2 21.2s-47.1-20.6-77.4-20c-40.2.6-74.4 23.4-93.9 59.6-39.9 69.1-10.2 171.3 28.6 227.3 19 27.6 41.6 58.5 71.3 57.4 28.5-1.1 39.2-18.4 73.5-18.4s44.1 18.4 77.4 17.8c31.9-.6 52-28.3 71-55.9 12.4-18.1 17.5-27.1 27.4-47.6-72.2-27.5-68.6-107.6-68.6-107.6zM241.2 64.1c27.5-32.3 25.1-61.4 24.3-71.5-23.6 1.3-51 16.2-66.9 34.5-14.5 16.8-27.2 44.6-23.7 70.6 25.6 2 51.6-12.6 66.3-33.6z"></path>
</svg>
