<svg xmlns="http://www.w3.org/2000/svg" viewBox="0 0 488 512" fill="currentColor">
  <path fill="#EA4335" d="M488 261.8c0-17.8-1.6-35-4.6-51.6H249v97.6h134c-5.8 31.6-23.6 58.4-50.2 76.4l81.4 63.4c47.6-43.8 74.8-108.4 74.8-185.8z"></path>
  <path fill="#34A853" d="M249 492c67.8 0 124.6-22.4 166.2-61l-81.4-63.4c-22.8 15.4-52 24.6-84.8 24.6-65.4 0-120.8-44.2-140.4-103.4l-86 66.6C69.6 445.6 152.6 492 249 492z"></path>
  <path fill="#4A90E2" d="M108.6 288.8c-4.6-13.8-7.2-28.6-7.2-44s2.6-30.2 7.2-44l-86-66.6C7.6 168.4 0 207.4 0 244.8s7.6 76.4 22.6 110.6l86-66.6z"></path>
  <path fill="#FBBC05" d="M249 97c36.8 0 69.6 12.6 95.6 37.2l71.4-71.4C373.6 23 316.8 0 249 0 152.6 0 69.6 46.4 22.6 134.2l86 66.6C128.2 141.2 183.6 97 249 97z"></path>
</svg>
